# Blender v2.90.1 OBJ File: ''
# www.blender.org
mtllib hospital.mtl
o Cube
v 17.029985 23.608084 -29.919521
v 17.029985 0.229639 -29.919521
v 17.029985 23.608084 9.972942
v 17.029985 0.229639 9.972942
v -17.532122 23.608084 -29.919521
v -17.532122 0.229639 -29.919521
v -17.532122 23.608084 9.972942
v -17.532122 0.229639 9.972942
vt 0.800000 0.400000
vt 0.600000 0.200000
vt 0.800000 0.200000
vt 0.000000 0.600000
vt 0.200000 0.800000
vt 0.000000 0.800000
vt 0.400000 0.600000
vt 0.600000 0.400000
vt 0.600000 0.600000
vt 0.800000 0.200000
vt 1.000000 0.000000
vt 1.000000 0.200000
vt 0.200000 0.200000
vt 0.400000 0.000000
vt 0.400000 0.200000
vt 0.400000 0.200000
vt 0.600000 0.000000
vt 0.600000 0.200000
vt 0.600000 0.400000
vt 0.200000 0.600000
vt 0.400000 0.400000
vt 0.800000 0.000000
vt 0.200000 0.000000
vt 0.400000 0.000000
vn 0.0000 1.0000 0.0000
vn 0.0000 0.0000 1.0000
vn -1.0000 0.0000 0.0000
vn 0.0000 -1.0000 0.0000
vn 1.0000 0.0000 0.0000
vn 0.0000 0.0000 -1.0000
usemtl Material
s off
f 5/1/1 3/2/1 1/3/1
f 3/4/2 8/5/2 4/6/2
f 7/7/3 6/8/3 8/9/3
f 2/10/4 8/11/4 6/12/4
f 1/13/5 4/14/5 2/15/5
f 5/16/6 2/17/6 6/18/6
f 5/1/1 7/19/1 3/2/1
f 3/4/2 7/20/2 8/5/2
f 7/7/3 5/21/3 6/8/3
f 2/10/4 4/22/4 8/11/4
f 1/13/5 3/23/5 4/14/5
f 5/16/6 1/24/6 2/17/6
o Cube.001
v -11.709950 23.111996 -23.594374
v -11.709950 27.230255 -23.594374
v -11.709950 23.111996 3.770788
v -11.709950 27.230255 3.770788
v 11.548217 23.111996 -23.594374
v 11.548217 27.230255 -23.594374
v 11.548217 23.111996 3.770788
v 11.548217 27.230255 3.770788
vt 0.200000 0.800000
vt 0.400000 0.800000
vt 0.400000 0.600000
vt 0.000000 0.600000
vt 0.200000 0.600000
vt 0.200000 0.400000
vt 0.000000 0.400000
vt 0.200000 0.200000
vt 0.200000 0.400000
vt 0.200000 0.600000
vt 0.400000 0.600000
vt 0.000000 1.000000
vt 0.200000 1.000000
vt 0.200000 0.800000
vt 0.600000 0.800000
vt 0.600000 0.600000
vt 0.400000 0.600000
vt 0.200000 0.600000
vt 0.000000 0.200000
vt 0.400000 0.400000
vt 0.000000 0.800000
vt 0.400000 0.800000
vn -1.0000 0.0000 0.0000
vn 0.0000 0.0000 1.0000
vn 1.0000 0.0000 0.0000
vn 0.0000 0.0000 -1.0000
vn 0.0000 -1.0000 0.0000
vn 0.0000 1.0000 0.0000
usemtl None
s off
f 10/25/7 9/26/7 11/27/7
f 12/28/8 11/29/8 15/30/8
f 16/31/9 15/30/9 13/32/9
f 14/33/10 13/34/10 9/35/10
f 15/36/11 11/37/11 9/38/11
f 12/39/12 16/40/12 14/41/12
f 10/25/7 11/27/7 12/42/7
f 12/28/8 15/30/8 16/31/8
f 16/31/9 13/32/9 14/43/9
f 14/33/10 9/35/10 10/44/10
f 15/36/11 9/38/11 13/45/11
f 12/39/12 14/41/12 10/46/12
o Icosphere
v 2.851954 31.438812 -1.031340
v -8.029738 31.438808 -4.567079
v -8.029738 31.438808 -16.008694
v 2.851954 31.438812 -19.544434
v 9.577288 31.438766 -10.287887
v -0.155629 37.454025 -10.287887
v 10.193539 26.572281 -6.925291
v 10.193539 26.572281 -13.650482
v -0.155629 26.572281 0.593856
v 6.240502 26.572281 -1.484374
v -10.504797 26.572281 -6.925291
v -6.551762 26.572281 -1.484374
v -6.551762 26.572281 -19.091400
v -10.504797 26.572281 -13.650482
v 6.240502 26.572281 -19.091400
v -0.155629 26.572281 -21.169628
v 7.333071 32.293209 -4.847048
v -3.016100 32.293224 -1.484429
v -9.412161 32.293205 -10.287887
v -3.016100 32.293224 -19.091343
v 7.333071 32.293209 -15.728725
v 1.612170 35.828884 -4.847066
v 5.565227 35.828854 -10.287887
v -4.783882 35.828880 -6.925304
v -4.783882 35.828880 -13.650469
v 1.612170 35.828884 -15.728706
vt 0.877411 0.536916
vt 0.874595 0.591282
vt 0.829094 0.555764
vt 0.877594 0.280901
vt 0.864411 0.330901
vt 0.828718 0.280901
vt 0.877411 0.743693
vt 0.853676 0.778879
vt 0.829094 0.724845
vt 0.877412 0.640305
vt 0.874595 0.689328
vt 0.829094 0.664075
vt 0.847814 0.496735
vt 0.877516 0.453188
vt 0.899577 0.501730
vt 0.930610 0.448283
vt 0.938144 0.488390
vt 0.900611 0.405805
vt 0.800000 0.700730
vt 0.818802 0.230902
vt 0.800000 0.280901
vt 0.864411 0.230902
vt 0.818802 0.330901
vt 0.853676 0.501730
vt 0.829094 0.616534
vt 0.800000 0.579879
vt 0.877412 0.640305
vt 0.815973 0.453188
vt 0.847006 0.399740
vt 0.927300 0.660641
vt 0.927300 0.721411
vt 0.914371 0.776757
vt 0.912247 0.200000
vt 0.922163 0.249999
vt 0.922163 0.311803
vt 0.912247 0.361803
vt 0.914371 0.503852
vt 0.927300 0.559198
vt 0.927300 0.619968
vt 0.881245 0.361803
vt 0.800000 0.501730
vn 0.4089 0.6617 0.6284
vn -0.4713 0.6617 0.5831
vn -0.7002 0.6617 -0.2680
vn 0.0385 0.6617 -0.7488
vn 0.7240 0.6617 -0.1947
vn 0.2680 0.9435 -0.1947
vn 0.4911 0.7947 -0.3568
vn 0.4089 0.6617 -0.6284
vn -0.1024 0.9435 -0.3151
vn -0.1876 0.7947 -0.5773
vn -0.4713 0.6617 -0.5831
vn -0.3313 0.9435 0.0000
vn -0.6071 0.7947 0.0000
vn -0.7002 0.6617 0.2680
vn -0.1024 0.9435 0.3151
vn -0.1876 0.7947 0.5773
vn 0.0385 0.6617 0.7488
vn 0.2680 0.9435 0.1947
vn 0.4911 0.7947 0.3568
vn 0.7240 0.6617 0.1947
vn 0.8897 0.3304 -0.3151
vn 0.7947 0.1876 -0.5773
vn 0.5746 0.3304 -0.7488
vn -0.0247 0.3304 -0.9435
vn -0.3035 0.1876 -0.9342
vn -0.5346 0.3304 -0.7779
vn -0.9050 0.3304 -0.2680
vn -0.9822 0.1876 0.0000
vn -0.9050 0.3304 0.2680
vn -0.5346 0.3304 0.7779
vn -0.3035 0.1876 0.9342
vn -0.0247 0.3304 0.9435
vn 0.5746 0.3304 0.7488
vn 0.7947 0.1876 0.5773
vn 0.8897 0.3304 0.3151
vn 0.3066 0.1256 -0.9435
vn -0.8026 0.1256 -0.5831
vn -0.8026 0.1256 0.5831
vn 0.3066 0.1256 0.9435
vn 0.9921 0.1256 0.0000
usemtl None
s off
f 17/47/13 33/48/13 38/49/13
f 18/50/14 34/51/14 40/52/14
f 19/53/15 35/54/15 41/55/15
f 20/56/16 36/57/16 42/58/16
f 21/59/17 37/60/17 39/61/17
f 39/61/18 42/62/18 22/63/18
f 39/61/19 37/60/19 42/62/19
f 37/60/20 20/64/20 42/62/20
f 42/58/21 41/55/21 22/65/21
f 42/58/22 36/57/22 41/55/22
f 36/57/23 19/53/23 41/55/23
f 41/66/24 40/52/24 22/67/24
f 41/66/25 35/68/25 40/52/25
f 35/68/26 18/50/26 40/52/26
f 40/52/27 38/69/27 22/67/27
f 40/52/28 34/51/28 38/69/28
f 34/70/29 17/47/29 38/49/29
f 38/49/30 39/71/30 22/72/30
f 38/49/31 33/48/31 39/71/31
f 33/48/32 21/73/32 39/71/32
f 24/74/33 37/60/33 21/59/33
f 24/74/34 31/75/34 37/60/34
f 31/75/35 20/64/35 37/60/35
f 32/76/36 36/57/36 20/56/36
f 32/76/37 29/77/37 36/57/37
f 29/77/38 19/53/38 36/57/38
f 30/78/39 35/54/39 19/53/39
f 30/79/40 27/80/40 35/68/40
f 27/80/41 18/50/41 35/68/41
f 28/81/42 34/51/42 18/50/42
f 28/81/43 25/82/43 34/51/43
f 25/83/44 17/47/44 34/70/44
f 26/84/45 33/48/45 17/47/45
f 26/84/46 23/85/46 33/48/46
f 23/85/47 21/73/47 33/48/47
f 31/75/48 32/86/48 20/64/48
f 29/77/49 30/78/49 19/53/49
f 27/80/50 28/81/50 18/50/50
f 25/83/51 26/84/51 17/47/51
f 23/87/52 24/74/52 21/59/52
o Cube.002
v -8.294082 -0.102122 11.237195
v -8.294082 18.180237 11.237195
v -8.294082 -0.102122 9.237195
v -8.294082 18.180237 9.237195
v 7.822354 -0.102122 11.237195
v 7.822354 18.180237 11.237195
v 7.822354 -0.102122 9.237195
v 7.822354 18.180237 9.237195
vt 0.600000 0.200000
vt 0.800000 0.000000
vt 0.800000 0.200000
vt 0.200000 0.400000
vt 0.400000 0.200000
vt 0.400000 0.400000
vt 0.000000 0.200000
vt 0.200000 0.000000
vt 0.200000 0.200000
vt 0.400000 0.200000
vt 0.600000 0.400000
vt 0.400000 0.400000
vt 0.600000 0.800000
vt 0.800000 0.600000
vt 0.800000 0.800000
vt 0.800000 0.600000
vt 0.600000 0.400000
vt 0.800000 0.400000
vt 0.600000 0.000000
vt 0.200000 0.200000
vt 0.000000 0.000000
vt 0.600000 0.600000
vt 0.600000 0.600000
vn -1.0000 0.0000 0.0000
vn 0.0000 0.0000 -1.0000
vn 1.0000 0.0000 0.0000
vn 0.0000 0.0000 1.0000
vn 0.0000 -1.0000 0.0000
vn 0.0000 1.0000 0.0000
usemtl None
s off
f 44/88/53 45/89/53 43/90/53
f 46/91/54 49/92/54 45/93/54
f 50/94/55 47/95/55 49/96/55
f 48/97/56 43/98/56 47/99/56
f 49/100/57 43/101/57 45/102/57
f 46/103/58 48/104/58 50/105/58
f 44/88/53 46/106/53 45/89/53
f 46/91/54 50/107/54 49/92/54
f 50/94/55 48/108/55 47/95/55
f 48/97/56 44/88/56 43/98/56
f 49/100/57 47/109/57 43/101/57
f 46/103/58 44/110/58 48/104/58
